# xmcd
#
# Track frame offsets:
# 150
# 24238
# 40860
# 55798
# 95260
# 121845
# 145750
# 163900
# 185430
#
# Disc length: 3119 seconds
#
#
# Revision: 2
# Processed by: cddbd v1.5.2PL0 Copyright (c) Steve Scherf et al.
# Submitted via: FreeRIP 2.951 
#
DISCID=6c0c2d09
DTITLE=Albert King - Funky London
DYEAR=1994
DGENRE=Blues
TTITLE0=Cold Sweat
TTITLE1=Can't You See What You're Doing To Me
TTITLE2=Funky London
TTITLE3=Lonesome
TTITLE4=Bad Luck
TTITLE5=Sweet Fingers
TTITLE6=Finger On The Trigger
TTITLE7=Drivin' Wheel
TTITLE8=Lovingest Woman In Town
EXTD=
EXTT0=
EXTT1=
EXTT2=
EXTT3=
EXTT4=
EXTT5=
EXTT6=
EXTT7=
EXTT8=
PLAYORDER=
